<mxfile host="app.diagrams.net" modified="2020-07-27T17:53:00.937Z" agent="5.0 (Windows)" etag="7zqteT-ZmHXPWbQFjk8g" version="13.5.3" type="github">
  <diagram id="_B6--fNvl5OPntU9QEn6" name="Page-1">
    <mxGraphModel dx="1422" dy="795" grid="1" gridSize="10" guides="1" tooltips="1" connect="1" arrows="1" fold="1" page="1" pageScale="1" pageWidth="850" pageHeight="1100" math="0" shadow="0">
      <root>
        <mxCell id="0" />
        <mxCell id="1" parent="0" />
        <mxCell id="HP-s9qnrU3H1NAebICU0-1" value="User" style="shape=umlActor;verticalLabelPosition=bottom;verticalAlign=top;html=1;outlineConnect=0;" vertex="1" parent="1">
          <mxGeometry x="40" y="200" width="40" height="80" as="geometry" />
        </mxCell>
        <mxCell id="HP-s9qnrU3H1NAebICU0-3" value="Password" style="text;html=1;strokeColor=none;fillColor=none;align=center;verticalAlign=middle;whiteSpace=wrap;rounded=0;" vertex="1" parent="1">
          <mxGeometry x="80" y="230" width="80" height="20" as="geometry" />
        </mxCell>
        <mxCell id="HP-s9qnrU3H1NAebICU0-4" value="Competent website" style="rounded=0;whiteSpace=wrap;html=1;" vertex="1" parent="1">
          <mxGeometry x="240" y="120" width="160" height="40" as="geometry" />
        </mxCell>
        <mxCell id="HP-s9qnrU3H1NAebICU0-5" value="Less-competent website" style="rounded=0;whiteSpace=wrap;html=1;" vertex="1" parent="1">
          <mxGeometry x="240" y="220" width="160" height="40" as="geometry" />
        </mxCell>
        <mxCell id="HP-s9qnrU3H1NAebICU0-6" value="Dubious website" style="rounded=0;whiteSpace=wrap;html=1;" vertex="1" parent="1">
          <mxGeometry x="240" y="320" width="160" height="40" as="geometry" />
        </mxCell>
        <mxCell id="HP-s9qnrU3H1NAebICU0-7" value="Password" style="endArrow=classic;html=1;entryX=0;entryY=0.5;entryDx=0;entryDy=0;" edge="1" parent="1" source="HP-s9qnrU3H1NAebICU0-3" target="HP-s9qnrU3H1NAebICU0-4">
          <mxGeometry width="50" height="50" relative="1" as="geometry">
            <mxPoint x="400" y="410" as="sourcePoint" />
            <mxPoint x="450" y="360" as="targetPoint" />
          </mxGeometry>
        </mxCell>
        <mxCell id="HP-s9qnrU3H1NAebICU0-8" value="Password" style="endArrow=classic;html=1;" edge="1" parent="1" source="HP-s9qnrU3H1NAebICU0-3" target="HP-s9qnrU3H1NAebICU0-5">
          <mxGeometry width="50" height="50" relative="1" as="geometry">
            <mxPoint x="110" y="200" as="sourcePoint" />
            <mxPoint x="160" y="150" as="targetPoint" />
          </mxGeometry>
        </mxCell>
        <mxCell id="HP-s9qnrU3H1NAebICU0-9" value="Password" style="endArrow=classic;html=1;entryX=0;entryY=0.5;entryDx=0;entryDy=0;" edge="1" parent="1" source="HP-s9qnrU3H1NAebICU0-3" target="HP-s9qnrU3H1NAebICU0-6">
          <mxGeometry width="50" height="50" relative="1" as="geometry">
            <mxPoint x="400" y="410" as="sourcePoint" />
            <mxPoint x="450" y="360" as="targetPoint" />
          </mxGeometry>
        </mxCell>
        <mxCell id="HP-s9qnrU3H1NAebICU0-10" value="&lt;b&gt;&lt;font style=&quot;font-size: 16px&quot;&gt;Password stored as&lt;br&gt;&lt;/font&gt;&lt;/b&gt;" style="text;html=1;strokeColor=none;fillColor=none;align=left;verticalAlign=middle;whiteSpace=wrap;rounded=0;" vertex="1" parent="1">
          <mxGeometry x="440" y="40" width="320" height="40" as="geometry" />
        </mxCell>
        <mxCell id="HP-s9qnrU3H1NAebICU0-11" value="&lt;div&gt;scrypt(Password, Salt)&lt;/div&gt;&lt;div&gt;bcrypt(Password, Salt)&lt;br&gt;&lt;/div&gt;" style="text;html=1;strokeColor=none;fillColor=none;align=left;verticalAlign=middle;whiteSpace=wrap;rounded=0;" vertex="1" parent="1">
          <mxGeometry x="440" y="120" width="320" height="40" as="geometry" />
        </mxCell>
        <mxCell id="HP-s9qnrU3H1NAebICU0-12" value="PBKDF2(HMACâˆ’SHA1, Password, Salt, ...)" style="text;html=1;strokeColor=none;fillColor=none;align=left;verticalAlign=middle;whiteSpace=wrap;rounded=0;" vertex="1" parent="1">
          <mxGeometry x="440" y="220" width="320" height="40" as="geometry" />
        </mxCell>
        <mxCell id="HP-s9qnrU3H1NAebICU0-13" value="&lt;div&gt;Password&lt;i&gt; (as plaintext)&lt;/i&gt;&lt;/div&gt;&lt;div&gt;MD5(Password)&lt;br&gt;&lt;/div&gt;" style="text;html=1;strokeColor=none;fillColor=none;align=left;verticalAlign=middle;whiteSpace=wrap;rounded=0;" vertex="1" parent="1">
          <mxGeometry x="440" y="320" width="320" height="40" as="geometry" />
        </mxCell>
      </root>
    </mxGraphModel>
  </diagram>
</mxfile>
